<mxfile host="app.diagrams.net" agent="Mozilla/5.0 (Windows NT 10.0; Win64; x64) AppleWebKit/537.36 (KHTML, like Gecko) Chrome/130.0.0.0 Safari/537.36" version="24.8.3">
  <diagram name="Page-1" id="x006pdGWxqQLqWnL8NJv">
    <mxGraphModel dx="1434" dy="738" grid="0" gridSize="10" guides="1" tooltips="1" connect="1" arrows="1" fold="1" page="1" pageScale="1" pageWidth="850" pageHeight="1100" math="0" shadow="0">
      <root>
        <mxCell id="0" />
        <mxCell id="1" parent="0" />
        <mxCell id="nkXZn6BLZi7EkJnUFuFs-2" value="" style="image;aspect=fixed;perimeter=ellipsePerimeter;html=1;align=center;shadow=0;dashed=0;spacingTop=3;image=img/lib/active_directory/laptop_client.svg;" vertex="1" parent="1">
          <mxGeometry x="64" y="29" width="113.08" height="125.65" as="geometry" />
        </mxCell>
        <mxCell id="nkXZn6BLZi7EkJnUFuFs-4" value="" style="image;aspect=fixed;perimeter=ellipsePerimeter;html=1;align=center;shadow=0;dashed=0;spacingTop=3;image=img/lib/active_directory/domain_controller.svg;" vertex="1" parent="1">
          <mxGeometry x="980" y="123.65" width="146.3" height="209" as="geometry" />
        </mxCell>
        <mxCell id="nkXZn6BLZi7EkJnUFuFs-5" value="AS&amp;nbsp;&lt;div style=&quot;font-size: 24px;&quot;&gt;TGS&lt;/div&gt;" style="text;html=1;align=center;verticalAlign=middle;resizable=0;points=[];autosize=1;strokeColor=#6c8ebf;fillColor=#dae8fc;fontStyle=1;labelBackgroundColor=none;fontSize=24;" vertex="1" parent="1">
          <mxGeometry x="1173" y="186.65" width="67" height="70" as="geometry" />
        </mxCell>
        <mxCell id="nkXZn6BLZi7EkJnUFuFs-6" value="&lt;span style=&quot;color: rgba(0, 0, 0, 0); font-family: monospace; font-size: 0px; text-align: start;&quot;&gt;%3CmxGraphModel%3E%3Croot%3E%3CmxCell%20id%3D%220%22%2F%3E%3CmxCell%20id%3D%221%22%20parent%3D%220%22%2F%3E%3CmxCell%20id%3D%222%22%20value%3D%22AS%26amp%3Bnbsp%3B%26lt%3Bdiv%20style%3D%26quot%3Bfont-size%3A%2015px%3B%26quot%3B%26gt%3BTGS%26lt%3B%2Fdiv%26gt%3B%22%20style%3D%22text%3Bhtml%3D1%3Balign%3Dcenter%3BverticalAlign%3Dmiddle%3Bresizable%3D0%3Bpoints%3D%5B%5D%3Bautosize%3D1%3BstrokeColor%3D%236c8ebf%3BfillColor%3D%23dae8fc%3BfontStyle%3D1%3BlabelBackgroundColor%3Dnone%3BfontSize%3D15%3B%22%20vertex%3D%221%22%20parent%3D%221%22%3E%3CmxGeometry%20x%3D%22692%22%20y%3D%22335%22%20width%3D%2249%22%20height%3D%2248%22%20as%3D%22geometry%22%2F%3E%3C%2FmxCell%3E%3C%2Froot%3E%3C%2FmxGraphModel%3E&lt;/span&gt;" style="text;html=1;align=center;verticalAlign=middle;resizable=0;points=[];autosize=1;strokeColor=none;fillColor=none;" vertex="1" parent="1">
          <mxGeometry x="596" y="127.65" width="18" height="26" as="geometry" />
        </mxCell>
        <mxCell id="nkXZn6BLZi7EkJnUFuFs-7" value="&lt;font style=&quot;font-size: 23px;&quot;&gt;KDC&lt;/font&gt;" style="text;html=1;align=center;verticalAlign=middle;resizable=0;points=[];autosize=1;strokeColor=#6c8ebf;fillColor=#dae8fc;fontStyle=1;labelBackgroundColor=none;fontSize=15;" vertex="1" parent="1">
          <mxGeometry x="1007" y="215.65" width="67" height="40" as="geometry" />
        </mxCell>
        <mxCell id="nkXZn6BLZi7EkJnUFuFs-10" style="edgeStyle=orthogonalEdgeStyle;rounded=0;orthogonalLoop=1;jettySize=auto;html=1;exitX=1;exitY=0.5;exitDx=0;exitDy=0;entryX=0.041;entryY=0.583;entryDx=0;entryDy=0;entryPerimeter=0;dashed=1;fillColor=#dae8fc;strokeColor=#6c8ebf;strokeWidth=3;" edge="1" parent="1" source="nkXZn6BLZi7EkJnUFuFs-4" target="nkXZn6BLZi7EkJnUFuFs-5">
          <mxGeometry relative="1" as="geometry" />
        </mxCell>
        <mxCell id="nkXZn6BLZi7EkJnUFuFs-12" value="Client" style="text;html=1;align=center;verticalAlign=middle;resizable=0;points=[];autosize=1;strokeColor=#6c8ebf;fillColor=#dae8fc;fontStyle=1;labelBackgroundColor=none;fontSize=15;" vertex="1" parent="1">
          <mxGeometry x="101.00000000000004" y="80.65" width="56" height="30" as="geometry" />
        </mxCell>
        <mxCell id="nkXZn6BLZi7EkJnUFuFs-15" value="" style="edgeStyle=none;orthogonalLoop=1;jettySize=auto;html=1;rounded=0;entryX=0;entryY=0.25;entryDx=0;entryDy=0;exitX=1;exitY=0.25;exitDx=0;exitDy=0;fillColor=#d5e8d4;strokeColor=#82b366;strokeWidth=4;dashed=1;" edge="1" parent="1" source="nkXZn6BLZi7EkJnUFuFs-2" target="nkXZn6BLZi7EkJnUFuFs-19">
          <mxGeometry width="100" relative="1" as="geometry">
            <mxPoint x="236" y="59.650000000000006" as="sourcePoint" />
            <mxPoint x="321.9359999999999" y="131.20700000000002" as="targetPoint" />
            <Array as="points" />
          </mxGeometry>
        </mxCell>
        <mxCell id="nkXZn6BLZi7EkJnUFuFs-17" value="" style="edgeStyle=none;orthogonalLoop=1;jettySize=auto;html=1;rounded=0;entryX=0;entryY=0;entryDx=0;entryDy=0;exitX=1;exitY=0.5;exitDx=0;exitDy=0;fillColor=#d5e8d4;strokeColor=#82b366;strokeWidth=4;dashed=1;" edge="1" parent="1" source="nkXZn6BLZi7EkJnUFuFs-19" target="nkXZn6BLZi7EkJnUFuFs-4">
          <mxGeometry width="100" relative="1" as="geometry">
            <mxPoint x="811.4760000000001" y="157.65" as="sourcePoint" />
            <mxPoint x="283" y="148.65" as="targetPoint" />
            <Array as="points" />
          </mxGeometry>
        </mxCell>
        <mxCell id="nkXZn6BLZi7EkJnUFuFs-19" value="&lt;span style=&quot;font-size: 15px; text-wrap-mode: nowrap;&quot;&gt;&lt;b&gt;AS-REQ&lt;/b&gt;&lt;/span&gt;&lt;span style=&quot;font-size: 15px; font-weight: 700; text-wrap-mode: nowrap;&quot;&gt; - &lt;/span&gt;&lt;span style=&quot;font-size: 15px; text-wrap-mode: nowrap;&quot;&gt;Solicitação do TGT - A senha do usuário (NTLM) + timestamp&lt;/span&gt;" style="whiteSpace=wrap;html=1;fillColor=#dae8fc;strokeColor=#6c8ebf;" vertex="1" parent="1">
          <mxGeometry x="277" y="60.650000000000006" width="570" height="36" as="geometry" />
        </mxCell>
        <mxCell id="nkXZn6BLZi7EkJnUFuFs-20" value="&lt;span style=&quot;font-size: 15px; font-weight: 700; text-wrap-mode: nowrap;&quot;&gt;AS-REP - &lt;/span&gt;&lt;span style=&quot;font-size: 15px; text-wrap-mode: nowrap;&quot;&gt;Resposta do TGT - Pacote encriptado com hash krbtgt + user (NTLM)&lt;/span&gt;" style="whiteSpace=wrap;html=1;fillColor=#dae8fc;strokeColor=#6c8ebf;" vertex="1" parent="1">
          <mxGeometry x="278" y="102.65" width="569" height="42" as="geometry" />
        </mxCell>
        <mxCell id="nkXZn6BLZi7EkJnUFuFs-21" value="" style="edgeStyle=none;orthogonalLoop=1;jettySize=auto;html=1;rounded=0;entryX=1;entryY=0.5;entryDx=0;entryDy=0;exitX=0.014;exitY=0.244;exitDx=0;exitDy=0;fillColor=#f8cecc;strokeColor=#b85450;strokeWidth=4;exitPerimeter=0;dashed=1;" edge="1" parent="1" source="nkXZn6BLZi7EkJnUFuFs-4" target="nkXZn6BLZi7EkJnUFuFs-20">
          <mxGeometry width="100" relative="1" as="geometry">
            <mxPoint x="839" y="138.65" as="sourcePoint" />
            <mxPoint x="989" y="191.65" as="targetPoint" />
            <Array as="points" />
          </mxGeometry>
        </mxCell>
        <mxCell id="nkXZn6BLZi7EkJnUFuFs-22" value="" style="edgeStyle=none;orthogonalLoop=1;jettySize=auto;html=1;rounded=0;entryX=1;entryY=0.5;entryDx=0;entryDy=0;fillColor=#f8cecc;strokeColor=#b85450;strokeWidth=4;exitX=0;exitY=0.5;exitDx=0;exitDy=0;dashed=1;" edge="1" parent="1" source="nkXZn6BLZi7EkJnUFuFs-20" target="nkXZn6BLZi7EkJnUFuFs-2">
          <mxGeometry width="100" relative="1" as="geometry">
            <mxPoint x="280" y="152.65" as="sourcePoint" />
            <mxPoint x="177.08000000000004" y="126.65" as="targetPoint" />
            <Array as="points" />
          </mxGeometry>
        </mxCell>
        <mxCell id="nkXZn6BLZi7EkJnUFuFs-23" value="&lt;span style=&quot;font-size: 15px; font-weight: 700; text-wrap-mode: nowrap;&quot;&gt;TGS-REQ - &lt;/span&gt;&lt;span style=&quot;font-size: 15px; text-wrap-mode: nowrap;&quot;&gt;TGT encriptado com a hash krbtgt é enviado solicitando um ST ao TGS&lt;/span&gt;" style="whiteSpace=wrap;html=1;fillColor=#dae8fc;strokeColor=#6c8ebf;" vertex="1" parent="1">
          <mxGeometry x="260" y="161.65" width="602" height="42" as="geometry" />
        </mxCell>
        <mxCell id="nkXZn6BLZi7EkJnUFuFs-24" value="" style="edgeStyle=none;orthogonalLoop=1;jettySize=auto;html=1;rounded=0;entryX=0;entryY=0.5;entryDx=0;entryDy=0;fillColor=#d5e8d4;strokeColor=#82b366;strokeWidth=4;dashed=1;" edge="1" parent="1" source="nkXZn6BLZi7EkJnUFuFs-2" target="nkXZn6BLZi7EkJnUFuFs-23">
          <mxGeometry width="100" relative="1" as="geometry">
            <mxPoint x="167" y="135.65" as="sourcePoint" />
            <mxPoint x="278" y="165.65" as="targetPoint" />
            <Array as="points" />
          </mxGeometry>
        </mxCell>
        <mxCell id="nkXZn6BLZi7EkJnUFuFs-25" value="" style="edgeStyle=none;orthogonalLoop=1;jettySize=auto;html=1;rounded=0;entryX=0;entryY=0.5;entryDx=0;entryDy=0;exitX=1;exitY=0.5;exitDx=0;exitDy=0;fillColor=#d5e8d4;strokeColor=#82b366;strokeWidth=4;dashed=1;" edge="1" parent="1" source="nkXZn6BLZi7EkJnUFuFs-23" target="nkXZn6BLZi7EkJnUFuFs-4">
          <mxGeometry width="100" relative="1" as="geometry">
            <mxPoint x="858" y="217.65" as="sourcePoint" />
            <mxPoint x="983" y="272.65" as="targetPoint" />
            <Array as="points" />
          </mxGeometry>
        </mxCell>
        <mxCell id="nkXZn6BLZi7EkJnUFuFs-27" value="&lt;span style=&quot;font-size: 15px; font-weight: 700; text-wrap-mode: nowrap;&quot;&gt;TGS-RES - &lt;/span&gt;&lt;span style=&quot;font-size: 15px; text-wrap-mode: nowrap;&quot;&gt;O TGS recebe o pacote encriptado e assinado com a hash do serviço&lt;/span&gt;" style="whiteSpace=wrap;html=1;fillColor=#dae8fc;strokeColor=#6c8ebf;" vertex="1" parent="1">
          <mxGeometry x="260" y="214.65" width="601" height="42" as="geometry" />
        </mxCell>
        <mxCell id="nkXZn6BLZi7EkJnUFuFs-28" value="" style="edgeStyle=none;orthogonalLoop=1;jettySize=auto;html=1;rounded=0;entryX=1;entryY=0.5;entryDx=0;entryDy=0;exitX=-0.007;exitY=0.656;exitDx=0;exitDy=0;fillColor=#f8cecc;strokeColor=#b85450;strokeWidth=4;exitPerimeter=0;dashed=1;" edge="1" parent="1" source="nkXZn6BLZi7EkJnUFuFs-4" target="nkXZn6BLZi7EkJnUFuFs-27">
          <mxGeometry width="100" relative="1" as="geometry">
            <mxPoint x="992" y="267.65" as="sourcePoint" />
            <mxPoint x="857" y="216.65" as="targetPoint" />
            <Array as="points" />
          </mxGeometry>
        </mxCell>
        <mxCell id="nkXZn6BLZi7EkJnUFuFs-29" value="" style="edgeStyle=none;orthogonalLoop=1;jettySize=auto;html=1;rounded=0;entryX=1;entryY=1;entryDx=0;entryDy=0;exitX=0;exitY=0.25;exitDx=0;exitDy=0;fillColor=#f8cecc;strokeColor=#b85450;strokeWidth=4;dashed=1;" edge="1" parent="1" source="nkXZn6BLZi7EkJnUFuFs-27" target="nkXZn6BLZi7EkJnUFuFs-2">
          <mxGeometry width="100" relative="1" as="geometry">
            <mxPoint x="221" y="231.65" as="sourcePoint" />
            <mxPoint x="103" y="206.65" as="targetPoint" />
            <Array as="points" />
          </mxGeometry>
        </mxCell>
        <mxCell id="nkXZn6BLZi7EkJnUFuFs-30" value="&lt;span style=&quot;font-size: 15px; text-wrap-mode: nowrap;&quot;&gt;&lt;b&gt;AP-REP -&amp;nbsp;&lt;/b&gt;&lt;/span&gt;&lt;div&gt;&lt;span style=&quot;font-size: 15px; text-wrap-mode: nowrap;&quot;&gt;Cliente&amp;nbsp;&lt;/span&gt;&lt;span style=&quot;font-size: 15px; text-wrap-mode: nowrap; background-color: initial;&quot;&gt;acessa&amp;nbsp;&lt;/span&gt;&lt;/div&gt;&lt;div&gt;&lt;span style=&quot;font-size: 15px; text-wrap-mode: nowrap;&quot;&gt;o serviço desejado&lt;/span&gt;&lt;/div&gt;" style="whiteSpace=wrap;html=1;fillColor=#dae8fc;strokeColor=#6c8ebf;" vertex="1" parent="1">
          <mxGeometry x="46.03999999999999" y="244" width="149" height="95" as="geometry" />
        </mxCell>
        <mxCell id="nkXZn6BLZi7EkJnUFuFs-31" value="" style="image;aspect=fixed;perimeter=ellipsePerimeter;html=1;align=center;shadow=0;dashed=0;spacingTop=3;image=img/lib/active_directory/web_server.svg;" vertex="1" parent="1">
          <mxGeometry x="84" y="402" width="130" height="162.5" as="geometry" />
        </mxCell>
        <mxCell id="nkXZn6BLZi7EkJnUFuFs-33" value="" style="edgeStyle=none;orthogonalLoop=1;jettySize=auto;html=1;rounded=0;entryX=0.5;entryY=0;entryDx=0;entryDy=0;fillColor=#d5e8d4;strokeColor=#82b366;strokeWidth=4;exitX=0.5;exitY=1;exitDx=0;exitDy=0;dashed=1;" edge="1" parent="1" source="nkXZn6BLZi7EkJnUFuFs-2" target="nkXZn6BLZi7EkJnUFuFs-30">
          <mxGeometry width="100" relative="1" as="geometry">
            <mxPoint x="64" y="198.15" as="sourcePoint" />
            <mxPoint x="155" y="258.15" as="targetPoint" />
            <Array as="points" />
          </mxGeometry>
        </mxCell>
        <mxCell id="nkXZn6BLZi7EkJnUFuFs-34" value="" style="edgeStyle=none;orthogonalLoop=1;jettySize=auto;html=1;rounded=0;entryX=0.25;entryY=0;entryDx=0;entryDy=0;fillColor=#d5e8d4;strokeColor=#82b366;strokeWidth=4;exitX=0.5;exitY=1;exitDx=0;exitDy=0;dashed=1;" edge="1" parent="1" source="nkXZn6BLZi7EkJnUFuFs-30" target="nkXZn6BLZi7EkJnUFuFs-31">
          <mxGeometry width="100" relative="1" as="geometry">
            <mxPoint x="120.03999999999999" y="337" as="sourcePoint" />
            <mxPoint x="120.03999999999999" y="426" as="targetPoint" />
            <Array as="points" />
          </mxGeometry>
        </mxCell>
        <mxCell id="nkXZn6BLZi7EkJnUFuFs-35" value="&lt;span style=&quot;font-size: 15px; font-weight: 700; text-wrap-mode: nowrap;&quot;&gt;PAC - &lt;/span&gt;&lt;span style=&quot;font-size: 15px; text-wrap-mode: nowrap;&quot;&gt;O serviço pede validação do ST recebido ao KDC&lt;/span&gt;" style="whiteSpace=wrap;html=1;fillColor=#dae8fc;strokeColor=#6c8ebf;" vertex="1" parent="1">
          <mxGeometry x="260" y="375" width="601" height="42" as="geometry" />
        </mxCell>
        <mxCell id="nkXZn6BLZi7EkJnUFuFs-37" value="" style="edgeStyle=none;orthogonalLoop=1;jettySize=auto;html=1;rounded=0;entryX=0;entryY=0.5;entryDx=0;entryDy=0;fillColor=#ffe6cc;strokeColor=#d79b00;strokeWidth=4;exitX=1;exitY=0;exitDx=0;exitDy=0;dashed=1;" edge="1" parent="1" source="nkXZn6BLZi7EkJnUFuFs-31" target="nkXZn6BLZi7EkJnUFuFs-35">
          <mxGeometry width="100" relative="1" as="geometry">
            <mxPoint x="244" y="451" as="sourcePoint" />
            <mxPoint x="243" y="570" as="targetPoint" />
            <Array as="points" />
          </mxGeometry>
        </mxCell>
        <mxCell id="nkXZn6BLZi7EkJnUFuFs-38" value="" style="edgeStyle=none;orthogonalLoop=1;jettySize=auto;html=1;rounded=0;entryX=0.007;entryY=0.882;entryDx=0;entryDy=0;fillColor=#ffe6cc;strokeColor=#d79b00;strokeWidth=4;exitX=1;exitY=0;exitDx=0;exitDy=0;entryPerimeter=0;dashed=1;" edge="1" parent="1" source="nkXZn6BLZi7EkJnUFuFs-35" target="nkXZn6BLZi7EkJnUFuFs-4">
          <mxGeometry width="100" relative="1" as="geometry">
            <mxPoint x="862" y="391" as="sourcePoint" />
            <mxPoint x="944" y="327" as="targetPoint" />
            <Array as="points" />
          </mxGeometry>
        </mxCell>
        <mxCell id="nkXZn6BLZi7EkJnUFuFs-41" value="&lt;span style=&quot;font-size: 15px; font-weight: 700; text-wrap-mode: nowrap;&quot;&gt;KDC - &lt;/span&gt;&lt;span style=&quot;font-size: 15px; text-wrap-mode: nowrap;&quot;&gt;Key Distribution Center&lt;/span&gt;&lt;div&gt;&lt;span style=&quot;font-size: 15px; text-wrap-mode: nowrap;&quot;&gt;&lt;b&gt;AS - &lt;/b&gt;Authentication Server&lt;/span&gt;&lt;/div&gt;&lt;div&gt;&lt;span style=&quot;font-size: 15px; text-wrap-mode: nowrap;&quot;&gt;&lt;b&gt;TGT - &lt;/b&gt;Ticket Granting Ticket&lt;/span&gt;&lt;/div&gt;&lt;div&gt;&lt;span style=&quot;font-size: 15px; text-wrap-mode: nowrap;&quot;&gt;&lt;b&gt;TGS - &lt;/b&gt;Ticket Granting Server/Service&lt;/span&gt;&lt;/div&gt;&lt;div&gt;&lt;span style=&quot;font-size: 15px; text-wrap-mode: nowrap;&quot;&gt;&lt;b&gt;ST - &lt;/b&gt;Service Ticket&lt;/span&gt;&lt;/div&gt;&lt;div style=&quot;font-size: 15px;&quot;&gt;&lt;b&gt;PAC - &lt;/b&gt;Privilege Attribute Certificate&lt;/div&gt;" style="whiteSpace=wrap;html=1;fillColor=#dae8fc;strokeColor=#6c8ebf;align=center;" vertex="1" parent="1">
          <mxGeometry x="405.5" y="541" width="313" height="132" as="geometry" />
        </mxCell>
      </root>
    </mxGraphModel>
  </diagram>
</mxfile>
